<svg width="96" height="94" viewBox="0 0 96 94" fill="none" xmlns="http://www.w3.org/2000/svg">
<rect y="0.619629" width="95.1047" height="93.3239" rx="24" fill="white"/>
<path d="M56.3113 35.4312C57.0788 36.1783 58.3223 36.1804 59.0899 35.4312L61.8244 32.7692C62.5908 32.0221 62.5887 30.8115 61.8244 30.0634L54.922 23.3462C54.1566 22.5991 52.9131 22.5991 52.1456 23.3462L49.41 26.0082C48.6446 26.7553 48.6446 27.9659 49.41 28.711L56.3113 35.4312Z" fill="url(#paint0_linear_22728_12647)"/>
<path d="M39.9674 51.6375C40.7339 52.3816 41.9774 52.3816 42.7439 51.6375L45.4795 48.9735C46.247 48.2284 46.247 47.0169 45.4795 46.2697L38.5771 39.5506C37.8106 38.8055 36.5671 38.8034 35.7996 39.5506L33.0651 42.2125C32.2976 42.9596 32.2997 44.1702 33.0651 44.9173L39.9674 51.6375Z" fill="url(#paint1_linear_22728_12647)"/>
<path d="M71.2998 52.2766L68.5244 49.5718C67.7548 48.8267 66.5144 48.8267 65.748 49.5718L64.5306 50.7558L52.7821 39.317L55.3268 36.8387L48.2672 29.9685L45.7214 32.4467L42.4794 35.6007L39.9902 38.0238L47.0488 44.896L49.5411 42.474L61.2876 53.9107L60.1888 54.9814C59.4213 55.7255 59.4192 56.9371 60.1888 57.6842L62.9642 60.387C63.7338 61.1362 64.9763 61.1362 65.7427 60.387L71.2988 54.9804C72.0674 54.2323 72.0674 53.0238 71.2998 52.2766Z" fill="url(#paint2_linear_22728_12647)"/>
<path d="M50.7795 60.4921C50.7795 59.2683 49.7604 58.2742 48.5011 58.2742H30.71C29.4518 58.2742 28.4316 59.2683 28.4316 60.4921V64.0921H23.4375V71.6339H55.4779V64.0921H50.7795V60.4921Z" fill="url(#paint3_linear_22728_12647)"/>
<defs>
<linearGradient id="paint0_linear_22728_12647" x1="55.6172" y1="22.7859" x2="55.6172" y2="35.9923" gradientUnits="userSpaceOnUse">
<stop stop-color="#EF8080"/>
<stop offset="1" stop-color="#F0145A"/>
</linearGradient>
<linearGradient id="paint1_linear_22728_12647" x1="39.2727" y1="38.991" x2="39.2727" y2="52.1956" gradientUnits="userSpaceOnUse">
<stop stop-color="#EF8080"/>
<stop offset="1" stop-color="#F0145A"/>
</linearGradient>
<linearGradient id="paint2_linear_22728_12647" x1="55.9328" y1="29.9685" x2="55.9328" y2="60.9489" gradientUnits="userSpaceOnUse">
<stop stop-color="#EF8080"/>
<stop offset="1" stop-color="#F0145A"/>
</linearGradient>
<linearGradient id="paint3_linear_22728_12647" x1="39.4577" y1="58.2742" x2="39.4577" y2="71.6339" gradientUnits="userSpaceOnUse">
<stop stop-color="#EF8080"/>
<stop offset="1" stop-color="#F0145A"/>
</linearGradient>
</defs>
</svg>
