<svg width="96" height="94" viewBox="0 0 96 94" fill="none" xmlns="http://www.w3.org/2000/svg">
<rect y="0.295654" width="95.1047" height="93.3239" rx="24" fill="white"/>
<g clip-path="url(#clip0_22728_12640)">
<path d="M57.2314 52.7721C59.6976 52.7721 62.1362 53.3726 64.2836 54.5086C64.6736 54.7132 65.0315 54.9571 65.3969 55.1918C68.9212 48.4758 70.7811 41.3728 70.7811 34.4434C70.7811 34.0539 70.7811 33.6519 70.7683 33.25C70.7424 32.6847 70.3295 32.1947 69.7487 32.0691C61.9543 30.4109 54.8954 26.303 49.3463 20.1978L48.5204 19.2807C48.2752 19.0043 47.9268 18.8536 47.5526 18.8536C47.1525 18.8034 46.8428 18.9918 46.5976 19.2556L45.333 20.6123C40.0678 26.2528 33.4347 30.1471 26.1565 31.8807L25.3177 32.0816C24.7499 32.2073 24.3498 32.6973 24.3369 33.2625C23.8724 50.9251 34.5833 63.6256 39.2032 68.2736C40.4541 69.5238 41.8486 70.7663 43.1746 71.7934C42.6772 70.3331 42.3909 68.7964 42.3909 67.2187C42.3909 59.2526 49.0481 52.7721 57.2314 52.7721Z" fill="url(#paint0_linear_22728_12640)"/>
<path d="M63.0522 56.7163C61.2714 55.7741 59.2582 55.2842 57.2322 55.2842C50.4701 55.2842 44.9727 60.6357 44.9727 67.2184C44.9727 69.4419 45.5921 71.6152 46.7794 73.4744C49.0377 77.0295 52.9349 79.1525 57.2322 79.1525C63.9814 79.1525 69.4917 73.801 69.4917 67.2184C69.4917 62.8216 67.0269 58.8016 63.0522 56.7163ZM63.5109 65.6294L53.9224 72.8932L50.649 67.9087C50.2646 67.3242 50.4404 66.5476 51.0409 66.1741C51.642 65.7999 52.4404 65.9722 52.8229 66.5556L54.5714 69.2177L61.9255 63.6469C62.4869 63.2206 63.2985 63.3181 63.7365 63.8665C64.1744 64.4142 64.0729 65.2037 63.5109 65.6294Z" fill="url(#paint1_linear_22728_12640)"/>
</g>
<defs>
<linearGradient id="paint0_linear_22728_12640" x1="47.5517" y1="18.8455" x2="47.5517" y2="71.7934" gradientUnits="userSpaceOnUse">
<stop stop-color="#EF8080"/>
<stop offset="1" stop-color="#F0145A"/>
</linearGradient>
<linearGradient id="paint1_linear_22728_12640" x1="57.2322" y1="55.2842" x2="57.2322" y2="79.1525" gradientUnits="userSpaceOnUse">
<stop stop-color="#EF8080"/>
<stop offset="1" stop-color="#F0145A"/>
</linearGradient>
<clipPath id="clip0_22728_12640">
<rect width="67.1047" height="65.3239" fill="white" transform="translate(14 14.2957)"/>
</clipPath>
</defs>
</svg>
