<svg width="96" height="94" viewBox="0 0 96 94" fill="none" xmlns="http://www.w3.org/2000/svg">
<rect width="95.1047" height="93.3239" rx="24" fill="white"/>
<path d="M38.8861 42.7068C40.0436 42.7068 40.9831 41.7923 40.9831 40.6655V32.7041C40.9831 29.145 43.9577 26.2483 47.6139 26.2483C51.2701 26.2483 54.2457 29.145 54.2457 32.7041V40.6655C54.2457 41.7923 55.1842 42.7068 56.3428 42.7068C57.5003 42.7068 58.4398 41.7923 58.4398 40.6655V32.7041C58.4408 26.8933 53.5841 22.1655 47.6139 22.1655C41.6458 22.1655 36.7891 26.8933 36.7891 32.7041V40.6655C36.7891 41.7923 37.7285 42.7068 38.8861 42.7068Z" fill="url(#paint0_linear_22728_12612)"/>
<path d="M71.6673 38.1199H60.5363V40.6655C60.5363 42.9171 58.6553 44.7482 56.3422 44.7482C54.0292 44.7482 52.1482 42.9171 52.1482 40.6655V38.1199H43.0796V40.6655C43.0796 42.9171 41.1986 44.7482 38.8856 44.7482C36.5726 44.7482 34.6915 42.9171 34.6915 40.6655V38.1199H23.4358C22.857 38.1199 22.4994 38.5639 22.6368 39.111L29.9743 68.1975C30.4167 69.8326 32.1845 71.1585 33.9209 71.1585H61.1822C62.9206 71.1585 64.6863 69.8326 65.1309 68.1975L72.4663 39.111C72.6036 38.5628 72.2471 38.1199 71.6673 38.1199Z" fill="url(#paint1_linear_22728_12612)"/>
<path d="M43.987 49.1116C43.987 48.3221 44.6439 47.6826 45.4549 47.6826C46.2659 47.6826 46.9228 48.3221 46.9228 49.1116V56.2054L46.9229 54.8274C46.9229 54.0379 47.5798 53.3985 48.3908 53.3985C49.2018 53.3985 49.8587 54.0379 49.8587 54.8274V56.5385C49.8719 55.7604 50.524 54.113 51.3264 54.113C52.1371 54.113 52.7943 54.7527 52.7943 55.5419C52.7943 55.5419 52.8375 56.6045 52.934 56.668C53.1689 56.1834 53.6754 54.8274 54.2623 54.8274C55.073 54.8274 55.7302 55.4672 55.7302 56.2564V63.4012C55.7302 64.9795 54.4157 66.2591 52.7944 66.2591H47.8872C46.3297 66.2591 44.8361 65.6568 43.7352 64.5851L41.418 62.3295L38.1153 60.8905C38.1206 59.526 39.2188 59.1143 40.3171 59.1143C41.2632 59.1143 42.1138 59.2579 43.9869 60.186L43.987 49.1116Z" fill="white"/>
<defs>
<linearGradient id="paint0_linear_22728_12612" x1="47.6144" y1="22.1655" x2="47.6144" y2="42.7068" gradientUnits="userSpaceOnUse">
<stop stop-color="#EF8080"/>
<stop offset="1" stop-color="#F0145A"/>
</linearGradient>
<linearGradient id="paint1_linear_22728_12612" x1="47.5516" y1="38.1199" x2="47.5516" y2="71.1585" gradientUnits="userSpaceOnUse">
<stop stop-color="#EF8080"/>
<stop offset="1" stop-color="#F0145A"/>
</linearGradient>
</defs>
</svg>
