<svg width="96" height="94" viewBox="0 0 96 94" fill="none" xmlns="http://www.w3.org/2000/svg">
<rect y="0.647949" width="95.1047" height="93.3239" rx="24" fill="white"/>
<g clip-path="url(#clip0_22728_12626)">
<path d="M77.4634 53.1557C76.7425 52.865 75.9837 52.7177 75.2079 52.7177C73.497 52.7177 71.9166 53.4285 70.8192 54.6196L69.5401 54.1038L65.8911 52.6325C66.4089 50.9451 66.6884 49.1587 66.6884 47.3097C66.6884 45.4607 66.4088 43.6743 65.8911 41.987L69.5401 40.5157L70.8192 39.9998C71.9166 41.191 73.497 41.9017 75.2079 41.9017C75.9837 41.9017 76.7425 41.7544 77.4634 41.4636C80.4678 40.2521 81.8998 36.887 80.6552 33.9621C79.7388 31.8086 77.5993 30.4169 75.2048 30.4169C74.429 30.4169 73.6701 30.5642 72.9493 30.855C70.5815 31.8097 69.1917 34.1021 69.3175 36.4623L68.0309 36.981L64.3831 38.4518C62.611 35.2739 59.9168 32.6512 56.6523 30.9262L58.1632 27.3752L58.6956 26.1241C58.7987 26.1294 58.9021 26.1324 59.0059 26.1324C61.4006 26.1324 63.54 24.7409 64.4565 22.5872C65.7009 19.6624 64.2691 16.2972 61.2646 15.0857C60.5436 14.7953 59.7849 14.6479 59.0091 14.6479C56.6144 14.6479 54.4751 16.0395 53.5585 18.1932C52.5778 20.4981 53.2601 23.0757 55.0635 24.6581L54.5325 25.9062L53.0211 29.4583C51.2877 28.9544 49.4526 28.6822 47.5532 28.6822C45.6538 28.6822 43.8187 28.9544 42.0854 29.4583L40.5739 25.9062L40.0429 24.6581C41.8463 23.0757 42.5286 20.4981 41.5479 18.193C40.6313 16.0395 38.4917 14.6479 36.0972 14.6479C35.3214 14.6479 34.5626 14.7953 33.8417 15.0861C30.8373 16.2976 29.4053 19.6627 30.6499 22.5876C31.5663 24.7411 33.7058 26.1328 36.1003 26.1328C36.2041 26.1328 36.3075 26.1298 36.4107 26.1245L36.9431 27.3756L38.454 30.9266C35.1894 32.6517 32.4952 35.2743 30.7232 38.4522L27.0754 36.9814L25.7888 36.4627C25.9146 34.1024 24.5248 31.8101 22.157 30.8553C21.4361 30.5646 20.6773 30.4173 19.9015 30.4173C17.5069 30.4173 15.3675 31.8088 14.451 33.9625C13.2065 36.8873 14.6384 40.2525 17.6429 41.464C18.3637 41.7546 19.1226 41.902 19.8984 41.902C21.6093 41.902 23.1896 41.1912 24.287 40.0001L25.5662 40.5159L29.2152 41.9872C28.6973 43.6746 28.4179 45.461 28.4179 47.31C28.4179 49.1589 28.6975 50.9454 29.2152 52.6327L25.5661 54.1038L24.2869 54.6196C23.1895 53.4285 21.6091 52.7177 19.8982 52.7177C19.1225 52.7177 18.3636 52.865 17.6428 53.1558C14.6384 54.3674 13.2064 57.7324 14.451 60.6573C15.3674 62.8108 17.5069 64.2026 19.9014 64.2026C20.6772 64.2026 21.436 64.0552 22.1569 63.7644C24.5247 62.8097 25.9145 60.5174 25.7886 58.1572L27.0753 57.6384L30.7231 56.1676C32.4952 59.3455 35.1893 61.9683 38.4538 63.6932L36.9429 67.2442L36.4106 68.4953C36.3074 68.4901 36.204 68.487 36.1002 68.487C33.7055 68.487 31.5662 69.8786 30.6497 72.0322C29.4052 74.957 30.8371 78.3222 33.8416 79.5337C34.5624 79.8244 35.3213 79.9717 36.0971 79.9717C38.4917 79.9717 40.6311 78.5802 41.5476 76.4265C42.5284 74.1216 41.846 71.5439 40.0426 69.9616L40.5737 68.7135L42.0851 65.1614C43.8184 65.6653 45.6536 65.9375 47.5529 65.9375C49.4523 65.9375 51.2875 65.6653 53.0208 65.1614L54.5322 68.7135L55.0633 69.9616C53.2599 71.5439 52.5775 74.1216 53.5583 76.4266C54.4747 78.5802 56.6142 79.9719 59.0087 79.9719C59.7845 79.9719 60.5433 79.8245 61.2642 79.5337C64.2686 78.3222 65.7006 74.9571 64.456 72.0322C63.5396 69.8787 61.4001 68.487 59.0056 68.487C58.9018 68.487 58.7983 68.4901 58.6952 68.4953L58.1628 67.2442L56.6519 63.6932C59.9164 61.9681 62.6107 59.3455 64.3827 56.1676L68.0305 57.6384L69.3171 58.1572C69.1913 60.5174 70.5811 62.8097 72.9489 63.7645C73.6697 64.0552 74.4286 64.2026 75.2044 64.2026C77.599 64.2026 79.7384 62.811 80.6549 60.6573C81.8998 57.7324 80.468 54.3672 77.4634 53.1557ZM47.5532 62.1096C39.1701 62.1096 32.3498 55.4703 32.3498 47.3097C32.3498 39.1491 39.1701 32.5098 47.5532 32.5098C55.9363 32.5098 62.7566 39.1491 62.7566 47.3097C62.7566 55.4703 55.9362 62.1096 47.5532 62.1096Z" fill="black"/>
<path d="M77.4634 53.1557C76.7425 52.865 75.9837 52.7177 75.2079 52.7177C73.497 52.7177 71.9166 53.4285 70.8192 54.6196L69.5401 54.1038L65.8911 52.6325C66.4089 50.9451 66.6884 49.1587 66.6884 47.3097C66.6884 45.4607 66.4088 43.6743 65.8911 41.987L69.5401 40.5157L70.8192 39.9998C71.9166 41.191 73.497 41.9017 75.2079 41.9017C75.9837 41.9017 76.7425 41.7544 77.4634 41.4636C80.4678 40.2521 81.8998 36.887 80.6552 33.9621C79.7388 31.8086 77.5993 30.4169 75.2048 30.4169C74.429 30.4169 73.6701 30.5642 72.9493 30.855C70.5815 31.8097 69.1917 34.1021 69.3175 36.4623L68.0309 36.981L64.3831 38.4518C62.611 35.2739 59.9168 32.6512 56.6523 30.9262L58.1632 27.3752L58.6956 26.1241C58.7987 26.1294 58.9021 26.1324 59.0059 26.1324C61.4006 26.1324 63.54 24.7409 64.4565 22.5872C65.7009 19.6624 64.2691 16.2972 61.2646 15.0857C60.5436 14.7953 59.7849 14.6479 59.0091 14.6479C56.6144 14.6479 54.4751 16.0395 53.5585 18.1932C52.5778 20.4981 53.2601 23.0757 55.0635 24.6581L54.5325 25.9062L53.0211 29.4583C51.2877 28.9544 49.4526 28.6822 47.5532 28.6822C45.6538 28.6822 43.8187 28.9544 42.0854 29.4583L40.5739 25.9062L40.0429 24.6581C41.8463 23.0757 42.5286 20.4981 41.5479 18.193C40.6313 16.0395 38.4917 14.6479 36.0972 14.6479C35.3214 14.6479 34.5626 14.7953 33.8417 15.0861C30.8373 16.2976 29.4053 19.6627 30.6499 22.5876C31.5663 24.7411 33.7058 26.1328 36.1003 26.1328C36.2041 26.1328 36.3075 26.1298 36.4107 26.1245L36.9431 27.3756L38.454 30.9266C35.1894 32.6517 32.4952 35.2743 30.7232 38.4522L27.0754 36.9814L25.7888 36.4627C25.9146 34.1024 24.5248 31.8101 22.157 30.8553C21.4361 30.5646 20.6773 30.4173 19.9015 30.4173C17.5069 30.4173 15.3675 31.8088 14.451 33.9625C13.2065 36.8873 14.6384 40.2525 17.6429 41.464C18.3637 41.7546 19.1226 41.902 19.8984 41.902C21.6093 41.902 23.1896 41.1912 24.287 40.0001L25.5662 40.5159L29.2152 41.9872C28.6973 43.6746 28.4179 45.461 28.4179 47.31C28.4179 49.1589 28.6975 50.9454 29.2152 52.6327L25.5661 54.1038L24.2869 54.6196C23.1895 53.4285 21.6091 52.7177 19.8982 52.7177C19.1225 52.7177 18.3636 52.865 17.6428 53.1558C14.6384 54.3674 13.2064 57.7324 14.451 60.6573C15.3674 62.8108 17.5069 64.2026 19.9014 64.2026C20.6772 64.2026 21.436 64.0552 22.1569 63.7644C24.5247 62.8097 25.9145 60.5174 25.7886 58.1572L27.0753 57.6384L30.7231 56.1676C32.4952 59.3455 35.1893 61.9683 38.4538 63.6932L36.9429 67.2442L36.4106 68.4953C36.3074 68.4901 36.204 68.487 36.1002 68.487C33.7055 68.487 31.5662 69.8786 30.6497 72.0322C29.4052 74.957 30.8371 78.3222 33.8416 79.5337C34.5624 79.8244 35.3213 79.9717 36.0971 79.9717C38.4917 79.9717 40.6311 78.5802 41.5476 76.4265C42.5284 74.1216 41.846 71.5439 40.0426 69.9616L40.5737 68.7135L42.0851 65.1614C43.8184 65.6653 45.6536 65.9375 47.5529 65.9375C49.4523 65.9375 51.2875 65.6653 53.0208 65.1614L54.5322 68.7135L55.0633 69.9616C53.2599 71.5439 52.5775 74.1216 53.5583 76.4266C54.4747 78.5802 56.6142 79.9719 59.0087 79.9719C59.7845 79.9719 60.5433 79.8245 61.2642 79.5337C64.2686 78.3222 65.7006 74.9571 64.456 72.0322C63.5396 69.8787 61.4001 68.487 59.0056 68.487C58.9018 68.487 58.7983 68.4901 58.6952 68.4953L58.1628 67.2442L56.6519 63.6932C59.9164 61.9681 62.6107 59.3455 64.3827 56.1676L68.0305 57.6384L69.3171 58.1572C69.1913 60.5174 70.5811 62.8097 72.9489 63.7645C73.6697 64.0552 74.4286 64.2026 75.2044 64.2026C77.599 64.2026 79.7384 62.811 80.6549 60.6573C81.8998 57.7324 80.468 54.3672 77.4634 53.1557ZM47.5532 62.1096C39.1701 62.1096 32.3498 55.4703 32.3498 47.3097C32.3498 39.1491 39.1701 32.5098 47.5532 32.5098C55.9363 32.5098 62.7566 39.1491 62.7566 47.3097C62.7566 55.4703 55.9362 62.1096 47.5532 62.1096Z" fill="url(#paint0_linear_22728_12626)"/>
<path d="M47.5527 36.3374C41.3377 36.3374 36.2812 41.2597 36.2812 47.3098C36.2812 53.3599 41.3377 58.2821 47.5527 58.2821C53.7678 58.2821 58.8242 53.3599 58.8242 47.3098C58.8242 41.2597 53.7678 36.3374 47.5527 36.3374ZM49.5187 51.5201H45.5868V43.0994H49.5187V51.5201Z" fill="black"/>
<path d="M47.5527 36.3374C41.3377 36.3374 36.2812 41.2597 36.2812 47.3098C36.2812 53.3599 41.3377 58.2821 47.5527 58.2821C53.7678 58.2821 58.8242 53.3599 58.8242 47.3098C58.8242 41.2597 53.7678 36.3374 47.5527 36.3374ZM49.5187 51.5201H45.5868V43.0994H49.5187V51.5201Z" fill="url(#paint1_linear_22728_12626)"/>
</g>
<defs>
<linearGradient id="paint0_linear_22728_12626" x1="47.5531" y1="14.6479" x2="47.5531" y2="79.9719" gradientUnits="userSpaceOnUse">
<stop stop-color="#EF8080"/>
<stop offset="1" stop-color="#F0145A"/>
</linearGradient>
<linearGradient id="paint1_linear_22728_12626" x1="47.5527" y1="36.3374" x2="47.5527" y2="58.2821" gradientUnits="userSpaceOnUse">
<stop stop-color="#EF8080"/>
<stop offset="1" stop-color="#F0145A"/>
</linearGradient>
<clipPath id="clip0_22728_12626">
<rect width="67.1047" height="65.3239" fill="white" transform="translate(14 14.6479)"/>
</clipPath>
</defs>
</svg>
