<svg width="96" height="95" viewBox="0 0 96 95" fill="none" xmlns="http://www.w3.org/2000/svg">
<rect y="0.97168" width="95.1047" height="93.3239" rx="24" fill="white"/>
<path d="M58.0428 72.1301H38.1211V78.2542H58.0428V72.1301Z" fill="black"/>
<path d="M58.0428 72.1301H38.1211V78.2542H58.0428V72.1301Z" fill="url(#paint0_linear_22728_12633)"/>
<path d="M29.9091 17.4748L15.8223 31.1877L19.5293 34.7964L33.6161 21.0835L29.9091 17.4748Z" fill="black"/>
<path d="M29.9091 17.4748L15.8223 31.1877L19.5293 34.7964L33.6161 21.0835L29.9091 17.4748Z" fill="url(#paint1_linear_22728_12633)"/>
<path d="M65.4961 17.3415L61.7891 20.9502L75.8759 34.6632L79.5829 31.0545L65.4961 17.3415Z" fill="black"/>
<path d="M65.4961 17.3415L61.7891 20.9502L75.8759 34.6632L79.5829 31.0545L65.4961 17.3415Z" fill="url(#paint2_linear_22728_12633)"/>
<path d="M60.7186 24.8792L57.8967 24.7628C57.083 24.6509 56.2537 24.7248 55.4744 24.9783C54.695 25.2319 53.9868 25.6584 53.4057 26.224L47.6342 31.8423L41.6016 25.9698C41.0778 25.4716 40.4244 25.122 39.7116 24.9585C38.9988 24.795 38.2537 24.8239 37.5566 25.042C36.8989 25.2367 36.1993 25.2538 35.5324 25.0915C34.8655 24.9291 34.2565 24.5934 33.7704 24.1202L32.8751 23.2487L21.7539 34.0746L23.5657 35.8384L23.4461 38.5853C23.3313 39.3774 23.4071 40.1846 23.6676 40.9433C23.9281 41.702 24.3661 42.3914 24.9472 42.9571L35.0259 52.7683C35.1606 51.4804 35.7945 50.2909 36.7986 49.442L33.6584 46.3851L34.3998 45.6634L37.6798 48.8563C38.1447 48.5987 38.6478 48.4126 39.1711 48.3046V44.5343L37.3654 42.7765L38.1068 42.0547L39.1711 43.0907V37.6302C39.1595 36.7277 39.4885 35.8523 40.0959 35.1703C40.7033 34.4883 41.5467 34.047 42.4662 33.9302C42.8129 33.8975 43.1627 33.9129 43.505 33.976L42.2159 32.721L42.9573 31.9993L44.8406 33.8326C45.1742 33.2035 45.6901 32.6836 46.3245 32.3373C46.9589 31.9911 47.6837 31.8338 48.4091 31.8849C49.2845 31.9844 50.0965 32.3789 50.7045 33.0001C51.3125 33.6212 51.678 34.4298 51.7379 35.2858C52.3338 35.0101 52.9942 34.8931 53.6516 34.9469C54.586 35.0558 55.4454 35.4986 56.0634 36.1895C56.6813 36.8803 57.0136 37.7699 56.9958 38.6858V42.1805C57.95 42.3745 58.8299 42.8234 59.5366 43.477C60.2434 44.1306 60.7491 44.9629 60.997 45.8806L63.9208 43.0344L64.6622 43.7562L61.1861 47.14C61.1862 47.1541 61.1899 47.1671 61.1899 47.1812V50.57C62.1319 50.474 63.0119 50.0676 63.6842 49.4181L70.8562 42.4365C71.3679 41.9266 71.7271 41.2905 71.895 40.5966C72.063 39.9028 72.0333 39.1775 71.8091 38.4988C71.6091 37.8586 71.5916 37.1775 71.7584 36.5283C71.9252 35.8791 72.2701 35.2863 72.7562 34.8131L73.6515 33.9415L62.5303 23.1155L60.7186 24.8792Z" fill="black"/>
<path d="M60.7186 24.8792L57.8967 24.7628C57.083 24.6509 56.2537 24.7248 55.4744 24.9783C54.695 25.2319 53.9868 25.6584 53.4057 26.224L47.6342 31.8423L41.6016 25.9698C41.0778 25.4716 40.4244 25.122 39.7116 24.9585C38.9988 24.795 38.2537 24.8239 37.5566 25.042C36.8989 25.2367 36.1993 25.2538 35.5324 25.0915C34.8655 24.9291 34.2565 24.5934 33.7704 24.1202L32.8751 23.2487L21.7539 34.0746L23.5657 35.8384L23.4461 38.5853C23.3313 39.3774 23.4071 40.1846 23.6676 40.9433C23.9281 41.702 24.3661 42.3914 24.9472 42.9571L35.0259 52.7683C35.1606 51.4804 35.7945 50.2909 36.7986 49.442L33.6584 46.3851L34.3998 45.6634L37.6798 48.8563C38.1447 48.5987 38.6478 48.4126 39.1711 48.3046V44.5343L37.3654 42.7765L38.1068 42.0547L39.1711 43.0907V37.6302C39.1595 36.7277 39.4885 35.8523 40.0959 35.1703C40.7033 34.4883 41.5467 34.047 42.4662 33.9302C42.8129 33.8975 43.1627 33.9129 43.505 33.976L42.2159 32.721L42.9573 31.9993L44.8406 33.8326C45.1742 33.2035 45.6901 32.6836 46.3245 32.3373C46.9589 31.9911 47.6837 31.8338 48.4091 31.8849C49.2845 31.9844 50.0965 32.3789 50.7045 33.0001C51.3125 33.6212 51.678 34.4298 51.7379 35.2858C52.3338 35.0101 52.9942 34.8931 53.6516 34.9469C54.586 35.0558 55.4454 35.4986 56.0634 36.1895C56.6813 36.8803 57.0136 37.7699 56.9958 38.6858V42.1805C57.95 42.3745 58.8299 42.8234 59.5366 43.477C60.2434 44.1306 60.7491 44.9629 60.997 45.8806L63.9208 43.0344L64.6622 43.7562L61.1861 47.14C61.1862 47.1541 61.1899 47.1671 61.1899 47.1812V50.57C62.1319 50.474 63.0119 50.0676 63.6842 49.4181L70.8562 42.4365C71.3679 41.9266 71.7271 41.2905 71.895 40.5966C72.063 39.9028 72.0333 39.1775 71.8091 38.4988C71.6091 37.8586 71.5916 37.1775 71.7584 36.5283C71.9252 35.8791 72.2701 35.2863 72.7562 34.8131L73.6515 33.9415L62.5303 23.1155L60.7186 24.8792Z" fill="url(#paint3_linear_22728_12633)"/>
<path d="M45.3309 37.1098C45.2512 36.4467 44.9068 35.8408 44.372 35.4228C43.8373 35.0048 43.1551 34.8084 42.4728 34.8759C41.811 34.9648 41.2058 35.2873 40.7724 35.7822C40.3389 36.277 40.1074 36.9097 40.1218 37.5599V49.1522C39.0095 49.1522 37.9427 49.5824 37.1561 50.348C36.3696 51.1137 35.9277 52.1521 35.9277 53.235V63.1085C35.9362 63.8213 36.1443 64.5184 36.5296 65.1246C36.9148 65.7308 37.4627 66.2232 38.1141 66.5489C38.7206 66.8639 39.2277 67.3334 39.5814 67.9073C39.935 68.4811 40.1218 69.1377 40.1218 69.8069V71.0394H55.8495V68.5452L57.9293 66.6852C58.5859 66.2041 59.1187 65.5811 59.4856 64.8653C59.8525 64.1495 60.0435 63.3605 60.0435 62.5606V47.1108C60.0435 46.028 59.6016 44.9896 58.8151 44.2239C58.0286 43.4582 56.9618 43.0281 55.8495 43.0281V38.6161C55.8673 37.9555 55.6333 37.3118 55.1927 36.8091C54.7521 36.3064 54.1359 35.9802 53.4629 35.8933C52.8024 35.8365 52.1444 36.0262 51.6222 36.4241C51.1 36.8219 50.7526 37.398 50.6505 38.0358H51.1312V53.7986H50.0826V38.0358H50.6069V35.554C50.6247 34.8934 50.3908 34.2498 49.9501 33.747C49.5095 33.2443 48.8933 32.9181 48.2204 32.8313C47.8578 32.7996 47.4924 32.8418 47.1475 32.9551C46.8026 33.0684 46.4857 33.2504 46.2171 33.4895C45.9484 33.7286 45.7338 34.0196 45.587 34.3438C45.4402 34.6681 45.3644 35.0186 45.3643 35.3729V37.1098H45.8886V52.8726H44.8401V37.1098H45.3309ZM40.5403 57.8814H39.4918V49.7159H40.5403V57.8814ZM55.3252 43.345H56.3737V54.0044H55.3252V43.345Z" fill="black"/>
<path d="M45.3309 37.1098C45.2512 36.4467 44.9068 35.8408 44.372 35.4228C43.8373 35.0048 43.1551 34.8084 42.4728 34.8759C41.811 34.9648 41.2058 35.2873 40.7724 35.7822C40.3389 36.277 40.1074 36.9097 40.1218 37.5599V49.1522C39.0095 49.1522 37.9427 49.5824 37.1561 50.348C36.3696 51.1137 35.9277 52.1521 35.9277 53.235V63.1085C35.9362 63.8213 36.1443 64.5184 36.5296 65.1246C36.9148 65.7308 37.4627 66.2232 38.1141 66.5489C38.7206 66.8639 39.2277 67.3334 39.5814 67.9073C39.935 68.4811 40.1218 69.1377 40.1218 69.8069V71.0394H55.8495V68.5452L57.9293 66.6852C58.5859 66.2041 59.1187 65.5811 59.4856 64.8653C59.8525 64.1495 60.0435 63.3605 60.0435 62.5606V47.1108C60.0435 46.028 59.6016 44.9896 58.8151 44.2239C58.0286 43.4582 56.9618 43.0281 55.8495 43.0281V38.6161C55.8673 37.9555 55.6333 37.3118 55.1927 36.8091C54.7521 36.3064 54.1359 35.9802 53.4629 35.8933C52.8024 35.8365 52.1444 36.0262 51.6222 36.4241C51.1 36.8219 50.7526 37.398 50.6505 38.0358H51.1312V53.7986H50.0826V38.0358H50.6069V35.554C50.6247 34.8934 50.3908 34.2498 49.9501 33.747C49.5095 33.2443 48.8933 32.9181 48.2204 32.8313C47.8578 32.7996 47.4924 32.8418 47.1475 32.9551C46.8026 33.0684 46.4857 33.2504 46.2171 33.4895C45.9484 33.7286 45.7338 34.0196 45.587 34.3438C45.4402 34.6681 45.3644 35.0186 45.3643 35.3729V37.1098H45.8886V52.8726H44.8401V37.1098H45.3309ZM40.5403 57.8814H39.4918V49.7159H40.5403V57.8814ZM55.3252 43.345H56.3737V54.0044H55.3252V43.345Z" fill="url(#paint4_linear_22728_12633)"/>
<defs>
<linearGradient id="paint0_linear_22728_12633" x1="48.082" y1="72.1301" x2="48.082" y2="78.2542" gradientUnits="userSpaceOnUse">
<stop stop-color="#EF8080"/>
<stop offset="1" stop-color="#F0145A"/>
</linearGradient>
<linearGradient id="paint1_linear_22728_12633" x1="22.8657" y1="24.3313" x2="26.473" y2="28.037" gradientUnits="userSpaceOnUse">
<stop stop-color="#EF8080"/>
<stop offset="1" stop-color="#F0145A"/>
</linearGradient>
<linearGradient id="paint2_linear_22728_12633" x1="63.6426" y1="19.1459" x2="77.3506" y2="33.2276" gradientUnits="userSpaceOnUse">
<stop stop-color="#EF8080"/>
<stop offset="1" stop-color="#F0145A"/>
</linearGradient>
<linearGradient id="paint3_linear_22728_12633" x1="47.7027" y1="23.1155" x2="47.7027" y2="52.7683" gradientUnits="userSpaceOnUse">
<stop stop-color="#EF8080"/>
<stop offset="1" stop-color="#F0145A"/>
</linearGradient>
<linearGradient id="paint4_linear_22728_12633" x1="47.9856" y1="32.821" x2="47.9856" y2="71.0394" gradientUnits="userSpaceOnUse">
<stop stop-color="#EF8080"/>
<stop offset="1" stop-color="#F0145A"/>
</linearGradient>
</defs>
</svg>
