<svg width="70" height="33" viewBox="0 0 70 33" fill="none" xmlns="http://www.w3.org/2000/svg">
<path d="M2.64358 6.10352e-05H0V19.0926H2.64358V12.0095C2.64358 10.8112 2.94164 9.86589 3.53774 9.20018C4.13384 8.53447 4.95024 8.1883 5.96102 8.1883C6.82926 8.1883 7.55495 8.50784 8.13809 9.1203C8.72124 9.74607 9.01929 10.5316 9.01929 11.4769V19.106H11.6758V11.4769C11.6758 9.71944 11.1964 8.33476 10.2374 7.29625C9.27846 6.25774 8.02146 5.73849 6.49233 5.73849C6.05173 5.73849 5.61114 5.79174 5.1835 5.91157C4.7429 6.0314 4.39301 6.16454 4.10792 6.311C3.82283 6.45746 3.5507 6.61723 3.30448 6.80363C3.05826 6.99002 2.8898 7.12317 2.81205 7.20305C2.7343 7.28294 2.6695 7.33619 2.64358 7.37614V6.10352e-05Z" fill="#F0145A"/>
<path d="M17.5846 0H14.8594V19.0767H17.5846V0Z" fill="white"/>
<path d="M33.6578 13.4897L33.7941 12.127C33.7941 10.3011 33.1945 8.77499 31.9682 7.54863C30.7418 6.32227 29.2157 5.72272 27.3897 5.72272C25.5638 5.72272 23.9832 6.37678 22.6751 7.6849C21.367 8.99301 20.7129 10.5464 20.7129 12.3996C20.7129 14.3072 21.3942 15.9424 22.7296 17.305C24.0649 18.6676 25.6728 19.349 27.526 19.349C28.2346 19.349 28.8886 19.2399 29.5427 19.0492C30.1968 18.8312 30.7418 18.6131 31.1233 18.3951C31.5321 18.1498 31.9409 17.8773 32.2952 17.5775C32.6495 17.2778 32.8947 17.0597 33.0038 16.9235C33.1128 16.7872 33.1945 16.7055 33.249 16.6237L31.4776 14.8523L31.0688 15.3701C30.7963 15.6971 30.333 16.0242 29.679 16.3784C28.9976 16.7327 28.2891 16.8962 27.526 16.8962C26.4632 16.8962 25.5638 16.5692 24.8008 15.8879C24.0377 15.2066 23.5744 14.4163 23.4381 13.4897H33.6578ZM27.3897 8.03918C28.3981 8.03918 29.2157 8.33896 29.897 8.91126C30.551 9.51081 30.9598 10.2466 31.1233 11.1732H23.5471C23.7924 10.2466 24.2285 9.51081 24.9098 8.91126C25.5638 8.33896 26.4087 8.03918 27.3897 8.03918Z" fill="white"/>
<path d="M46.3686 18.2861C46.3686 19.4852 46.0143 20.4663 45.2785 21.2294C44.5699 21.9652 43.6706 22.3467 42.5532 22.3467C42.0627 22.3467 41.5721 22.265 41.1088 22.1287C40.6455 21.9924 40.2913 21.8289 39.9915 21.6382C39.6917 21.4474 39.4192 21.2566 39.1467 21.0113C38.9014 20.7661 38.7379 20.6026 38.6561 20.5208C38.5744 20.439 38.5199 20.3573 38.4654 20.3028L36.6939 22.0742L36.912 22.3467C37.0482 22.5375 37.2935 22.7828 37.6205 23.0553C37.9476 23.3006 38.3291 23.5731 38.7651 23.8456C39.2012 24.0909 39.7462 24.3089 40.4275 24.4997C41.1088 24.6904 41.8174 24.7994 42.5532 24.7994C44.4064 24.7994 45.9325 24.1726 47.2134 22.919C48.467 21.6382 49.0938 20.112 49.0938 18.2589V5.99524H46.3686V7.35787L45.9053 6.94908C45.6055 6.67655 45.1422 6.40403 44.4881 6.1315C43.8341 5.85898 43.1255 5.72272 42.417 5.72272C40.7546 5.72272 39.3374 6.34952 38.1111 7.63039C36.8847 8.91126 36.2852 10.4374 36.2852 12.2633C36.2852 14.0892 36.8847 15.6154 38.1111 16.8962C39.3374 18.1771 40.7546 18.8039 42.417 18.8039C42.8803 18.8039 43.3163 18.7494 43.7796 18.6404C44.2156 18.5041 44.5699 18.3679 44.8697 18.2316C45.1695 18.0953 45.442 17.9318 45.6873 17.7411C45.9325 17.5503 46.1233 17.414 46.1778 17.3595L46.3686 17.1688V18.2861ZM39.0104 12.2633C39.0104 11.1187 39.3647 10.1649 40.1005 9.37455C40.8363 8.58423 41.7084 8.17544 42.6895 8.17544C43.6706 8.17544 44.5427 8.58423 45.2785 9.37455C45.987 10.1649 46.3686 11.1187 46.3686 12.2633C46.3686 13.4079 45.987 14.3617 45.2785 15.1521C44.5427 15.9424 43.6706 16.3512 42.6895 16.3512C41.7084 16.3512 40.8363 15.9424 40.1005 15.1521C39.3647 14.3617 39.0104 13.4079 39.0104 12.2633Z" fill="white"/>
<path d="M63.3195 19.0764V10.6282C63.3195 9.23829 62.8017 8.06643 61.7934 7.13985C60.7851 6.18601 59.4769 5.72272 57.869 5.72272C57.2422 5.72272 56.6154 5.80447 56.0159 5.96799C55.4163 6.15876 54.9258 6.34952 54.5715 6.56754C54.2172 6.78556 53.8629 7.03084 53.5359 7.33061C53.2089 7.60314 53.0181 7.79391 52.9091 7.90292C52.8273 8.01193 52.7456 8.09368 52.6911 8.17544L54.4625 9.94685L54.8168 9.48356C55.0348 9.18378 55.4163 8.91126 55.9886 8.61148C56.5609 8.3117 57.1877 8.17544 57.869 8.17544C58.6594 8.17544 59.3134 8.42071 59.8312 8.884C60.349 9.3473 60.5943 9.94685 60.5943 10.6282L55.8251 11.4457C54.6533 11.6365 53.6994 12.0998 53.0454 12.8356C52.364 13.5714 52.0098 14.4708 52.0098 15.5336C52.0098 16.542 52.4458 17.414 53.3179 18.1771C54.2172 18.9674 55.3073 19.349 56.6427 19.349C57.106 19.349 57.542 19.2945 57.9781 19.1582C58.4413 19.0492 58.7956 18.9129 59.0954 18.7767C59.3952 18.6404 59.6677 18.4769 59.913 18.2861C60.1583 18.0953 60.3218 17.9591 60.4308 17.9046C60.5125 17.8228 60.567 17.7411 60.5943 17.7138V19.0764H63.3195ZM57.0515 16.8962C56.3429 16.8962 55.7706 16.7327 55.3618 16.4057C54.9258 16.0787 54.735 15.6971 54.735 15.2611C54.735 14.7978 54.8713 14.389 55.1711 14.0892C55.4708 13.7895 55.8796 13.5714 56.3702 13.4897L60.5943 12.8084V13.0809C60.5943 14.3072 60.2945 15.2338 59.6677 15.9151C59.0409 16.5692 58.1688 16.8962 57.0515 16.8962Z" fill="white"/>
<path d="M69.3327 0H66.6074V19.0767H69.3327V0Z" fill="white"/>
<path d="M0 28.3298H0.852878V31.3202H2.70078V32.0151H0V28.3298Z" fill="white"/>
<path d="M8.26752 31.2254H6.5565L6.23009 32.0151H5.35615L6.99873 28.3298H7.84108L9.48893 32.0151H8.59393L8.26752 31.2254ZM7.99902 30.5779L7.41464 29.1669L6.83026 30.5779H7.99902Z" fill="white"/>
<path d="M17.8731 28.3298L16.6675 32.0151H15.7515L14.9407 29.5197L14.1036 32.0151H13.1928L11.982 28.3298H12.8664L13.6982 30.9201L14.5669 28.3298H15.3566L16.199 30.9411L17.0571 28.3298H17.8731Z" fill="white"/>
<path d="M26.9457 32.0783C26.5702 32.0783 26.2297 31.9976 25.9244 31.8361C25.6225 31.6712 25.3838 31.4448 25.2084 31.157C25.0364 30.8657 24.9504 30.5375 24.9504 30.1725C24.9504 29.8075 25.0364 29.481 25.2084 29.1932C25.3838 28.9019 25.6225 28.6756 25.9244 28.5141C26.2297 28.3491 26.5719 28.2667 26.951 28.2667C27.2704 28.2667 27.5582 28.3228 27.8144 28.4351C28.0741 28.5474 28.2917 28.7089 28.4672 28.9195L27.9197 29.4249C27.6705 29.1371 27.3616 28.9932 26.9931 28.9932C26.7649 28.9932 26.5614 29.0441 26.3824 29.1459C26.2034 29.2441 26.063 29.3828 25.9612 29.5618C25.8629 29.7408 25.8138 29.9443 25.8138 30.1725C25.8138 30.4006 25.8629 30.6042 25.9612 30.7832C26.063 30.9622 26.2034 31.1026 26.3824 31.2044C26.5614 31.3026 26.7649 31.3518 26.9931 31.3518C27.3616 31.3518 27.6705 31.2061 27.9197 30.9148L28.4672 31.4202C28.2917 31.6343 28.0741 31.7975 27.8144 31.9098C27.5547 32.0221 27.2651 32.0783 26.9457 32.0783Z" fill="white"/>
<path d="M33.3831 32.0783C33.0005 32.0783 32.6548 31.9958 32.3459 31.8309C32.0406 31.6659 31.8002 31.4395 31.6247 31.1517C31.4527 30.8604 31.3667 30.534 31.3667 30.1725C31.3667 29.811 31.4527 29.4863 31.6247 29.1985C31.8002 28.9072 32.0406 28.6791 32.3459 28.5141C32.6548 28.3491 33.0005 28.2667 33.3831 28.2667C33.7657 28.2667 34.1096 28.3491 34.415 28.5141C34.7203 28.6791 34.9607 28.9072 35.1362 29.1985C35.3117 29.4863 35.3995 29.811 35.3995 30.1725C35.3995 30.534 35.3117 30.8604 35.1362 31.1517C34.9607 31.4395 34.7203 31.6659 34.415 31.8309C34.1096 31.9958 33.7657 32.0783 33.3831 32.0783ZM33.3831 31.3518C33.6007 31.3518 33.7972 31.3026 33.9727 31.2044C34.1482 31.1026 34.2851 30.9622 34.3834 30.7832C34.4852 30.6042 34.5361 30.4006 34.5361 30.1725C34.5361 29.9443 34.4852 29.7408 34.3834 29.5618C34.2851 29.3828 34.1482 29.2441 33.9727 29.1459C33.7972 29.0441 33.6007 28.9932 33.3831 28.9932C33.1655 28.9932 32.9689 29.0441 32.7934 29.1459C32.618 29.2441 32.4793 29.3828 32.3775 29.5618C32.2793 29.7408 32.2301 29.9443 32.2301 30.1725C32.2301 30.4006 32.2793 30.6042 32.3775 30.7832C32.4793 30.9622 32.618 31.1026 32.7934 31.2044C32.9689 31.3026 33.1655 31.3518 33.3831 31.3518Z" fill="white"/>
<path d="M42.0264 32.0151L42.0211 29.8039L40.9366 31.6255H40.5523L39.473 29.8513V32.0151H38.6728V28.3298H39.3782L40.7576 30.62L42.1159 28.3298H42.8161L42.8266 32.0151H42.0264Z" fill="white"/>
<path d="M47.9285 28.3298C48.2549 28.3298 48.5374 28.3842 48.7761 28.493C49.0183 28.6018 49.2043 28.7563 49.3342 28.9563C49.464 29.1564 49.529 29.3933 49.529 29.6671C49.529 29.9373 49.464 30.1742 49.3342 30.3778C49.2043 30.5779 49.0183 30.7323 48.7761 30.8411C48.5374 30.9464 48.2549 30.999 47.9285 30.999H47.1862V32.0151H46.3333V28.3298H47.9285ZM47.8811 30.3041C48.1373 30.3041 48.3321 30.2497 48.4655 30.1409C48.5989 30.0286 48.6656 29.8706 48.6656 29.6671C48.6656 29.46 48.5989 29.3021 48.4655 29.1932C48.3321 29.0809 48.1373 29.0248 47.8811 29.0248H47.1862V30.3041H47.8811Z" fill="white"/>
<path d="M55.0121 31.2254H53.3011L52.9747 32.0151H52.1008L53.7433 28.3298H54.5857L56.2335 32.0151H55.3385L55.0121 31.2254ZM54.7436 30.5779L54.1592 29.1669L53.5749 30.5779H54.7436Z" fill="white"/>
<path d="M62.6281 28.3298V32.0151H61.9279L60.0906 29.7776V32.0151H59.2482V28.3298H59.9537L61.7858 30.5673V28.3298H62.6281Z" fill="white"/>
<path d="M67.9013 30.7095V32.0151H67.0485V30.6989L65.6217 28.3298H66.5273L67.5117 29.9672L68.4963 28.3298H69.3333L67.9013 30.7095Z" fill="white"/>
</svg>
