<svg width="177" height="57" viewBox="0 0 177 57" fill="none" xmlns="http://www.w3.org/2000/svg">
<g clip-path="url(#clip0_35059_353)">
<path d="M2.64358 15H0V34.0926H2.64358V27.0094C2.64358 25.8111 2.94164 24.8658 3.53774 24.2001C4.13384 23.5344 4.95024 23.1882 5.96102 23.1882C6.82926 23.1882 7.55495 23.5078 8.13809 24.1202C8.72124 24.746 9.01929 25.5315 9.01929 26.4769V34.1059H11.6758V26.4769C11.6758 24.7194 11.1964 23.3347 10.2374 22.2962C9.27846 21.2577 8.02146 20.7384 6.49233 20.7384C6.05173 20.7384 5.61114 20.7917 5.1835 20.9115C4.7429 21.0313 4.39301 21.1645 4.10792 21.3109C3.82283 21.4574 3.5507 21.6172 3.30448 21.8036C3.05826 21.99 2.8898 22.1231 2.81205 22.203C2.7343 22.2829 2.6695 22.3361 2.64358 22.3761V15Z" fill="#F0145A"/>
<path d="M17.5846 15H14.8594V34.0767H17.5846V15Z" fill="#323264"/>
<path d="M33.6578 28.4896L33.7941 27.127C33.7941 25.3011 33.1945 23.7749 31.9682 22.5486C30.7418 21.3222 29.2157 20.7227 27.3897 20.7227C25.5638 20.7227 23.9832 21.3767 22.6751 22.6848C21.367 23.993 20.7129 25.5463 20.7129 27.3995C20.7129 29.3072 21.3942 30.9423 22.7296 32.305C24.0649 33.6676 25.6728 34.3489 27.526 34.3489C28.2346 34.3489 28.8886 34.2399 29.5427 34.0491C30.1968 33.8311 30.7418 33.6131 31.1233 33.3951C31.5321 33.1498 31.9409 32.8773 32.2952 32.5775C32.6495 32.2777 32.8947 32.0597 33.0038 31.9234C33.1128 31.7872 33.1945 31.7054 33.249 31.6236L31.4776 29.8522L31.0688 30.37C30.7963 30.6971 30.333 31.0241 29.679 31.3784C28.9976 31.7327 28.2891 31.8962 27.526 31.8962C26.4632 31.8962 25.5638 31.5691 24.8008 30.8878C24.0377 30.2065 23.5744 29.4162 23.4381 28.4896H33.6578ZM27.3897 23.0391C28.3981 23.0391 29.2157 23.3389 29.897 23.9112C30.551 24.5108 30.9598 25.2466 31.1233 26.1732H23.5471C23.7924 25.2466 24.2285 24.5108 24.9098 23.9112C25.5638 23.3389 26.4087 23.0391 27.3897 23.0391Z" fill="#323264"/>
<path d="M46.3686 33.286C46.3686 34.4852 46.0143 35.4662 45.2785 36.2293C44.5699 36.9651 43.6706 37.3467 42.5532 37.3467C42.0627 37.3467 41.5721 37.2649 41.1088 37.1286C40.6455 36.9924 40.2913 36.8289 39.9915 36.6381C39.6917 36.4473 39.4192 36.2566 39.1467 36.0113C38.9014 35.766 38.7379 35.6025 38.6561 35.5207C38.5744 35.439 38.5199 35.3572 38.4654 35.3027L36.6939 37.0741L36.912 37.3467C37.0482 37.5374 37.2935 37.7827 37.6205 38.0552C37.9476 38.3005 38.3291 38.573 38.7651 38.8455C39.2012 39.0908 39.7462 39.3088 40.4275 39.4996C41.1088 39.6904 41.8174 39.7994 42.5532 39.7994C44.4064 39.7994 45.9325 39.1726 47.2134 37.919C48.467 36.6381 49.0938 35.112 49.0938 33.2588V20.9952H46.3686V22.3578L45.9053 21.949C45.6055 21.6765 45.1422 21.404 44.4881 21.1314C43.8341 20.8589 43.1255 20.7227 42.417 20.7227C40.7546 20.7227 39.3374 21.3495 38.1111 22.6303C36.8847 23.9112 36.2852 25.4373 36.2852 27.2632C36.2852 29.0892 36.8847 30.6153 38.1111 31.8962C39.3374 33.177 40.7546 33.8038 42.417 33.8038C42.8803 33.8038 43.3163 33.7493 43.7796 33.6403C44.2156 33.5041 44.5699 33.3678 44.8697 33.2315C45.1695 33.0953 45.442 32.9318 45.6873 32.741C45.9325 32.5502 46.1233 32.414 46.1778 32.3595L46.3686 32.1687V33.286ZM39.0104 27.2632C39.0104 26.1186 39.3647 25.1648 40.1005 24.3745C40.8363 23.5842 41.7084 23.1754 42.6895 23.1754C43.6706 23.1754 44.5427 23.5842 45.2785 24.3745C45.987 25.1648 46.3686 26.1186 46.3686 27.2632C46.3686 28.4079 45.987 29.3617 45.2785 30.152C44.5427 30.9423 43.6706 31.3511 42.6895 31.3511C41.7084 31.3511 40.8363 30.9423 40.1005 30.152C39.3647 29.3617 39.0104 28.4079 39.0104 27.2632Z" fill="#323264"/>
<path d="M63.3195 34.0764V25.6281C63.3195 24.2382 62.8017 23.0664 61.7934 22.1398C60.7851 21.1859 59.4769 20.7227 57.869 20.7227C57.2422 20.7227 56.6154 20.8044 56.0159 20.9679C55.4163 21.1587 54.9258 21.3495 54.5715 21.5675C54.2172 21.7855 53.8629 22.0308 53.5359 22.3306C53.2089 22.6031 53.0181 22.7938 52.9091 22.9029C52.8273 23.0119 52.7456 23.0936 52.6911 23.1754L54.4625 24.9468L54.8168 24.4835C55.0348 24.1837 55.4163 23.9112 55.9886 23.6114C56.5609 23.3116 57.1877 23.1754 57.869 23.1754C58.6594 23.1754 59.3134 23.4207 59.8312 23.8839C60.349 24.3472 60.5943 24.9468 60.5943 25.6281L55.8251 26.4457C54.6533 26.6364 53.6994 27.0997 53.0454 27.8356C52.364 28.5714 52.0098 29.4707 52.0098 30.5335C52.0098 31.5419 52.4458 32.414 53.3179 33.177C54.2172 33.9674 55.3073 34.3489 56.6427 34.3489C57.106 34.3489 57.542 34.2944 57.9781 34.1581C58.4413 34.0491 58.7956 33.9129 59.0954 33.7766C59.3952 33.6403 59.6677 33.4768 59.913 33.286C60.1583 33.0953 60.3218 32.959 60.4308 32.9045C60.5125 32.8228 60.567 32.741 60.5943 32.7137V34.0764H63.3195ZM57.0515 31.8962C56.3429 31.8962 55.7706 31.7327 55.3618 31.4056C54.9258 31.0786 54.735 30.6971 54.735 30.261C54.735 29.7977 54.8713 29.3889 55.1711 29.0892C55.4708 28.7894 55.8796 28.5714 56.3702 28.4896L60.5943 27.8083V28.0808C60.5943 29.3072 60.2945 30.2338 59.6677 30.9151C59.0409 31.5691 58.1688 31.8962 57.0515 31.8962Z" fill="#323264"/>
<path d="M69.3327 15H66.6074V34.0767H69.3327V15Z" fill="#323264"/>
<path d="M0 43.3298H0.852878V46.3201H2.70078V47.0151H0V43.3298Z" fill="#323264"/>
<path d="M8.26752 46.2254H6.5565L6.23009 47.0151H5.35615L6.99873 43.3298H7.84108L9.48893 47.0151H8.59393L8.26752 46.2254ZM7.99902 45.5778L7.41464 44.1669L6.83026 45.5778H7.99902Z" fill="#323264"/>
<path d="M17.8731 43.3298L16.6675 47.0151H15.7515L14.9407 44.5196L14.1036 47.0151H13.1928L11.982 43.3298H12.8664L13.6982 45.92L14.5669 43.3298H15.3566L16.199 45.9411L17.0571 43.3298H17.8731Z" fill="#323264"/>
<path d="M26.9457 47.0782C26.5702 47.0782 26.2297 46.9975 25.9244 46.8361C25.6225 46.6711 25.3838 46.4447 25.2084 46.1569C25.0364 45.8656 24.9504 45.5374 24.9504 45.1724C24.9504 44.8074 25.0364 44.481 25.2084 44.1932C25.3838 43.9019 25.6225 43.6755 25.9244 43.514C26.2297 43.3491 26.5719 43.2666 26.951 43.2666C27.2704 43.2666 27.5582 43.3228 27.8144 43.4351C28.0741 43.5474 28.2917 43.7088 28.4672 43.9194L27.9197 44.4248C27.6705 44.137 27.3616 43.9931 26.9931 43.9931C26.7649 43.9931 26.5614 44.044 26.3824 44.1458C26.2034 44.2441 26.063 44.3827 25.9612 44.5617C25.8629 44.7407 25.8138 44.9443 25.8138 45.1724C25.8138 45.4006 25.8629 45.6041 25.9612 45.7831C26.063 45.9621 26.2034 46.1025 26.3824 46.2043C26.5614 46.3026 26.7649 46.3517 26.9931 46.3517C27.3616 46.3517 27.6705 46.206 27.9197 45.9147L28.4672 46.4201C28.2917 46.6342 28.0741 46.7974 27.8144 46.9098C27.5547 47.0221 27.2651 47.0782 26.9457 47.0782Z" fill="#323264"/>
<path d="M33.3831 47.0782C33.0005 47.0782 32.6548 46.9958 32.3459 46.8308C32.0406 46.6658 31.8002 46.4395 31.6247 46.1516C31.4527 45.8603 31.3667 45.5339 31.3667 45.1724C31.3667 44.8109 31.4527 44.4863 31.6247 44.1985C31.8002 43.9071 32.0406 43.679 32.3459 43.514C32.6548 43.3491 33.0005 43.2666 33.3831 43.2666C33.7657 43.2666 34.1096 43.3491 34.415 43.514C34.7203 43.679 34.9607 43.9071 35.1362 44.1985C35.3117 44.4863 35.3995 44.8109 35.3995 45.1724C35.3995 45.5339 35.3117 45.8603 35.1362 46.1516C34.9607 46.4395 34.7203 46.6658 34.415 46.8308C34.1096 46.9958 33.7657 47.0782 33.3831 47.0782ZM33.3831 46.3517C33.6007 46.3517 33.7972 46.3026 33.9727 46.2043C34.1482 46.1025 34.2851 45.9621 34.3834 45.7831C34.4852 45.6041 34.5361 45.4006 34.5361 45.1724C34.5361 44.9443 34.4852 44.7407 34.3834 44.5617C34.2851 44.3827 34.1482 44.2441 33.9727 44.1458C33.7972 44.044 33.6007 43.9931 33.3831 43.9931C33.1655 43.9931 32.9689 44.044 32.7934 44.1458C32.618 44.2441 32.4793 44.3827 32.3775 44.5617C32.2793 44.7407 32.2301 44.9443 32.2301 45.1724C32.2301 45.4006 32.2793 45.6041 32.3775 45.7831C32.4793 45.9621 32.618 46.1025 32.7934 46.2043C32.9689 46.3026 33.1655 46.3517 33.3831 46.3517Z" fill="#323264"/>
<path d="M42.0264 47.0151L42.0211 44.8039L40.9366 46.6255H40.5523L39.473 44.8513V47.0151H38.6728V43.3298H39.3782L40.7576 45.6199L42.1159 43.3298H42.8161L42.8266 47.0151H42.0264Z" fill="#323264"/>
<path d="M47.9285 43.3298C48.2549 43.3298 48.5374 43.3842 48.7761 43.493C49.0183 43.6018 49.2043 43.7562 49.3342 43.9563C49.464 44.1563 49.529 44.3932 49.529 44.667C49.529 44.9373 49.464 45.1742 49.3342 45.3777C49.2043 45.5778 49.0183 45.7322 48.7761 45.841C48.5374 45.9463 48.2549 45.999 47.9285 45.999H47.1862V47.0151H46.3333V43.3298H47.9285ZM47.8811 45.304C48.1373 45.304 48.3321 45.2496 48.4655 45.1408C48.5989 45.0285 48.6656 44.8706 48.6656 44.667C48.6656 44.4599 48.5989 44.302 48.4655 44.1932C48.3321 44.0809 48.1373 44.0247 47.8811 44.0247H47.1862V45.304H47.8811Z" fill="#323264"/>
<path d="M55.0121 46.2254H53.3011L52.9747 47.0151H52.1008L53.7433 43.3298H54.5857L56.2335 47.0151H55.3385L55.0121 46.2254ZM54.7436 45.5778L54.1592 44.1669L53.5749 45.5778H54.7436Z" fill="#323264"/>
<path d="M62.6281 43.3298V47.0151H61.9279L60.0906 44.7776V47.0151H59.2482V43.3298H59.9537L61.7858 45.5673V43.3298H62.6281Z" fill="#323264"/>
<path d="M67.9013 45.7094V47.0151H67.0485V45.6989L65.6217 43.3298H66.5273L67.5117 44.9671L68.4963 43.3298H69.3333L67.9013 45.7094Z" fill="#323264"/>
<path fill-rule="evenodd" clip-rule="evenodd" d="M81.7288 15H84.951L76.5562 41H73.334L81.7288 15Z" fill="#F0145A"/>
<path d="M97.5112 34V31.68L97.4512 31.3V27.42C97.4512 26.5267 97.1978 25.84 96.6912 25.36C96.1978 24.88 95.4578 24.64 94.4712 24.64C93.7912 24.64 93.1445 24.7533 92.5312 24.98C91.9178 25.2067 91.3978 25.5067 90.9712 25.88L90.3312 24.82C90.8645 24.3667 91.5045 24.02 92.2512 23.78C92.9978 23.5267 93.7845 23.4 94.6112 23.4C95.9712 23.4 97.0178 23.74 97.7512 24.42C98.4978 25.0867 98.8712 26.1067 98.8712 27.48V34H97.5112ZM93.8912 34.1C93.1045 34.1 92.4178 33.9733 91.8312 33.72C91.2578 33.4533 90.8178 33.0933 90.5112 32.64C90.2045 32.1733 90.0512 31.64 90.0512 31.04C90.0512 30.4933 90.1778 30 90.4312 29.56C90.6978 29.1067 91.1245 28.7467 91.7112 28.48C92.3112 28.2 93.1112 28.06 94.1112 28.06H97.7312V29.12H94.1512C93.1378 29.12 92.4312 29.3 92.0312 29.66C91.6445 30.02 91.4512 30.4667 91.4512 31C91.4512 31.6 91.6845 32.08 92.1512 32.44C92.6178 32.8 93.2712 32.98 94.1112 32.98C94.9112 32.98 95.5978 32.8 96.1712 32.44C96.7578 32.0667 97.1845 31.5333 97.4512 30.84L97.7712 31.82C97.5045 32.5133 97.0378 33.0667 96.3712 33.48C95.7178 33.8933 94.8912 34.1 93.8912 34.1ZM108.148 34.1C107.228 34.1 106.401 33.8933 105.668 33.48C104.935 33.0533 104.355 32.44 103.928 31.64C103.501 30.84 103.288 29.8733 103.288 28.74C103.288 27.5933 103.501 26.6267 103.928 25.84C104.368 25.04 104.955 24.4333 105.688 24.02C106.421 23.6067 107.241 23.4 108.148 23.4C109.148 23.4 110.041 23.6267 110.828 24.08C111.628 24.52 112.255 25.14 112.708 25.94C113.161 26.74 113.388 27.6733 113.388 28.74C113.388 29.7933 113.161 30.7267 112.708 31.54C112.255 32.34 111.628 32.9667 110.828 33.42C110.041 33.8733 109.148 34.1 108.148 34.1ZM102.728 34V19.16H104.148V26.6L103.948 28.72L104.088 30.84V34H102.728ZM108.048 32.84C108.795 32.84 109.461 32.6733 110.048 32.34C110.635 31.9933 111.101 31.5133 111.448 30.9C111.795 30.2733 111.968 29.5533 111.968 28.74C111.968 27.9133 111.795 27.1933 111.448 26.58C111.101 25.9667 110.635 25.4933 110.048 25.16C109.461 24.8133 108.795 24.64 108.048 24.64C107.301 24.64 106.628 24.8133 106.028 25.16C105.441 25.4933 104.975 25.9667 104.628 26.58C104.295 27.1933 104.128 27.9133 104.128 28.74C104.128 29.5533 104.295 30.2733 104.628 30.9C104.975 31.5133 105.441 31.9933 106.028 32.34C106.628 32.6733 107.301 32.84 108.048 32.84ZM120.563 34.1C119.549 34.1 118.636 33.8733 117.823 33.42C117.023 32.9533 116.389 32.32 115.923 31.52C115.456 30.7067 115.223 29.78 115.223 28.74C115.223 27.6867 115.456 26.76 115.923 25.96C116.389 25.16 117.023 24.5333 117.823 24.08C118.623 23.6267 119.536 23.4 120.563 23.4C121.603 23.4 122.523 23.6267 123.323 24.08C124.136 24.5333 124.769 25.16 125.223 25.96C125.689 26.76 125.923 27.6867 125.923 28.74C125.923 29.78 125.689 30.7067 125.223 31.52C124.769 32.32 124.136 32.9533 123.323 33.42C122.509 33.8733 121.589 34.1 120.563 34.1ZM120.563 32.84C121.323 32.84 121.996 32.6733 122.583 32.34C123.169 31.9933 123.629 31.5133 123.963 30.9C124.309 30.2733 124.483 29.5533 124.483 28.74C124.483 27.9133 124.309 27.1933 123.963 26.58C123.629 25.9667 123.169 25.4933 122.583 25.16C121.996 24.8133 121.329 24.64 120.583 24.64C119.836 24.64 119.169 24.8133 118.583 25.16C117.996 25.4933 117.529 25.9667 117.183 26.58C116.836 27.1933 116.663 27.9133 116.663 28.74C116.663 29.5533 116.836 30.2733 117.183 30.9C117.529 31.5133 117.996 31.9933 118.583 32.34C119.169 32.6733 119.829 32.84 120.563 32.84ZM133.162 34.1C132.268 34.1 131.488 33.9333 130.822 33.6C130.155 33.2667 129.635 32.7667 129.262 32.1C128.902 31.4333 128.722 30.6 128.722 29.6V23.5H130.142V29.44C130.142 30.56 130.415 31.4067 130.962 31.98C131.522 32.54 132.302 32.82 133.302 32.82C134.035 32.82 134.668 32.6733 135.202 32.38C135.748 32.0733 136.162 31.6333 136.442 31.06C136.735 30.4867 136.882 29.8 136.882 29V23.5H138.302V34H136.942V31.12L137.162 31.64C136.828 32.4133 136.308 33.02 135.602 33.46C134.908 33.8867 134.095 34.1 133.162 34.1ZM145.579 34.1C144.593 34.1 143.833 33.8333 143.299 33.3C142.766 32.7667 142.499 32.0133 142.499 31.04V21.18H143.919V30.96C143.919 31.5733 144.073 32.0467 144.379 32.38C144.699 32.7133 145.153 32.88 145.739 32.88C146.366 32.88 146.886 32.7 147.299 32.34L147.799 33.36C147.519 33.6133 147.179 33.8 146.779 33.92C146.393 34.04 145.993 34.1 145.579 34.1ZM140.619 24.68V23.5H147.119V24.68H140.619ZM159.959 34.1C159.065 34.1 158.285 33.9333 157.619 33.6C156.952 33.2667 156.432 32.7667 156.059 32.1C155.699 31.4333 155.519 30.6 155.519 29.6V23.5H156.939V29.44C156.939 30.56 157.212 31.4067 157.759 31.98C158.319 32.54 159.099 32.82 160.099 32.82C160.832 32.82 161.465 32.6733 161.999 32.38C162.545 32.0733 162.959 31.6333 163.239 31.06C163.532 30.4867 163.679 29.8 163.679 29V23.5H165.099V34H163.739V31.12L163.959 31.64C163.625 32.4133 163.105 33.02 162.399 33.46C161.705 33.8867 160.892 34.1 159.959 34.1ZM171.876 34.1C171.01 34.1 170.19 33.98 169.416 33.74C168.643 33.4867 168.036 33.1733 167.596 32.8L168.236 31.68C168.663 32 169.21 32.28 169.876 32.52C170.543 32.7467 171.243 32.86 171.976 32.86C172.976 32.86 173.696 32.7067 174.136 32.4C174.576 32.08 174.796 31.66 174.796 31.14C174.796 30.7533 174.67 30.4533 174.416 30.24C174.176 30.0133 173.856 29.8467 173.456 29.74C173.056 29.62 172.61 29.52 172.116 29.44C171.623 29.36 171.13 29.2667 170.636 29.16C170.156 29.0533 169.716 28.9 169.316 28.7C168.916 28.4867 168.59 28.2 168.336 27.84C168.096 27.48 167.976 27 167.976 26.4C167.976 25.8267 168.136 25.3133 168.456 24.86C168.776 24.4067 169.243 24.0533 169.856 23.8C170.483 23.5333 171.243 23.4 172.136 23.4C172.816 23.4 173.496 23.4933 174.176 23.68C174.856 23.8533 175.416 24.0867 175.856 24.38L175.236 25.52C174.77 25.2 174.27 24.9733 173.736 24.84C173.203 24.6933 172.67 24.62 172.136 24.62C171.19 24.62 170.49 24.7867 170.036 25.12C169.596 25.44 169.376 25.8533 169.376 26.36C169.376 26.76 169.496 27.0733 169.736 27.3C169.99 27.5267 170.316 27.7067 170.716 27.84C171.13 27.96 171.576 28.06 172.056 28.14C172.55 28.22 173.036 28.32 173.516 28.44C174.01 28.5467 174.456 28.7 174.856 28.9C175.27 29.0867 175.596 29.36 175.836 29.72C176.09 30.0667 176.216 30.5267 176.216 31.1C176.216 31.7133 176.043 32.2467 175.696 32.7C175.363 33.14 174.87 33.4867 174.216 33.74C173.576 33.98 172.796 34.1 171.876 34.1Z" fill="#323264"/>
</g>
<defs>
<clipPath id="clip0_35059_353">
<rect width="176.95" height="57" fill="white"/>
</clipPath>
</defs>
</svg>
