<svg width="26" height="26" viewBox="0 0 26 26" fill="none" xmlns="http://www.w3.org/2000/svg">
<path d="M13.0966 0.552979C6.25209 0.552979 0.683594 6.12148 0.683594 12.966C0.683594 19.811 6.25209 25.38 13.0966 25.38C19.9411 25.38 25.5096 19.811 25.5096 12.966C25.5101 6.12148 19.9416 0.552979 13.0966 0.552979ZM19.9551 12.0585V12.059L16.3616 14.659L17.7456 18.889C17.7676 18.955 17.7791 19.0255 17.7791 19.0975C17.7791 19.467 17.4801 19.767 17.1106 19.767C16.9636 19.767 16.8286 19.72 16.7186 19.6405L13.0971 17.021L9.47559 19.6405C9.36559 19.72 9.23059 19.767 9.08409 19.767C8.71409 19.767 8.41459 19.4675 8.41459 19.0975C8.41459 19.025 8.42659 18.955 8.44859 18.889L9.83309 14.659L6.23959 12.059V12.0585C6.07159 11.9375 5.96259 11.74 5.96259 11.517C5.96259 11.1475 6.26159 10.8485 6.63159 10.8485H11.0801L12.4576 6.63798C12.5416 6.36448 12.7961 6.16548 13.0976 6.16548C13.3986 6.16548 13.6536 6.36448 13.7371 6.63798L15.1146 10.8485H19.5631C19.9326 10.8485 20.2321 11.1475 20.2321 11.517C20.2316 11.74 20.1226 11.9375 19.9551 12.0585Z" fill="#F0145A"/>
</svg>
