<svg width="24" height="28" viewBox="0 0 24 28" fill="none" xmlns="http://www.w3.org/2000/svg">
<path d="M23.1128 4.3054C22.9438 4.1374 22.7448 4.0529 22.5148 4.0529C22.4003 4.0529 22.1588 4.1469 21.7918 4.3324C21.4243 4.5184 21.0343 4.7254 20.6238 4.9564C20.2123 5.1859 19.7253 5.3939 19.1633 5.5799C18.6018 5.7654 18.0818 5.8594 17.6033 5.8594C17.1613 5.8594 16.7713 5.7754 16.4353 5.6069C15.3208 5.0849 14.3513 4.6954 13.5283 4.4384C12.7053 4.1819 11.8203 4.0529 10.8728 4.0529C9.23676 4.0529 7.37327 4.5849 5.28427 5.6469C4.85327 5.8619 4.54427 6.0284 4.34427 6.1504L4.14577 4.6949C4.59427 4.3054 4.88376 3.7379 4.88376 3.0974C4.88376 1.9239 3.93277 0.9729 2.75927 0.9729C1.58577 0.9729 0.634766 1.9239 0.634766 3.0974C0.634766 3.8629 1.04377 4.5284 1.65077 4.9024L4.52077 25.9474C4.60627 26.5739 5.14227 27.0284 5.75777 27.0284C5.81377 27.0284 5.87077 27.0249 5.92827 27.0174C6.61227 26.9234 7.09127 26.2939 6.99777 25.6099L5.84427 17.1514C7.93727 16.1129 9.74776 15.5894 11.2708 15.5894C11.9173 15.5894 12.5478 15.6859 13.1623 15.8809C13.7773 16.0764 14.2888 16.2884 14.6958 16.5179C15.1028 16.7479 15.5833 16.9609 16.1358 17.1549C16.6893 17.3499 17.2358 17.4474 17.7753 17.4474C19.1383 17.4474 20.7708 16.9339 22.6733 15.9074C22.9123 15.7834 23.0873 15.6614 23.1978 15.5419C23.3083 15.4224 23.3638 15.2524 23.3638 15.0314V4.9029C23.3638 4.6734 23.2803 4.4739 23.1128 4.3054Z" fill="#F0145A"/>
</svg>
