<svg width="26" height="22" viewBox="0 0 26 22" fill="none" xmlns="http://www.w3.org/2000/svg">
<path d="M14.233 13.332V12.774C14.233 12.0935 13.6815 11.542 13.0015 11.542C12.321 11.542 11.7695 12.0935 11.7695 12.774V13.332C11.7695 14.0125 12.321 14.564 13.0015 14.564C13.681 14.564 14.233 14.0125 14.233 13.332Z" fill="#F0145A"/>
<path d="M15.0769 14.0136C14.8039 14.9071 13.9814 15.5631 13.0004 15.5631C12.0189 15.5631 11.1964 14.9071 10.9234 14.0136H2.43886C1.90336 14.0136 1.39736 13.8891 0.943359 13.6731V19.3066C0.943359 20.4066 1.84336 21.3066 2.94336 21.3066H23.0564C24.1564 21.3066 25.0564 20.4066 25.0564 19.3066V13.6736C24.6019 13.8896 24.0964 14.0141 23.5609 14.0141H15.0769V14.0136Z" fill="#F0145A"/>
<path d="M23.478 3.8976H18.6775C18.3875 2.0846 16.817 0.693604 14.9235 0.693604H11.077C9.18345 0.693604 7.61345 2.0846 7.32295 3.8976H2.52295C1.37695 3.8976 0.439453 4.7976 0.439453 5.8976V10.5141C0.439453 11.6186 1.33495 12.5141 2.43945 12.5141H10.8295C10.858 11.9386 11.105 11.4216 11.4955 11.0476C11.5075 11.0361 11.5215 11.0271 11.534 11.0161C11.6205 10.9366 11.7105 10.8616 11.809 10.7966C11.844 10.7731 11.884 10.7571 11.9205 10.7361C12.0015 10.6896 12.0815 10.6411 12.169 10.6051C12.2375 10.5766 12.3115 10.5601 12.3835 10.5386C12.4455 10.5201 12.5045 10.4956 12.569 10.4826C12.7085 10.4541 12.853 10.4391 13.0005 10.4391C13.1485 10.4391 13.2925 10.4546 13.432 10.4826C13.496 10.4956 13.555 10.5201 13.617 10.5386C13.689 10.5601 13.763 10.5766 13.8315 10.6056C13.9185 10.6416 13.998 10.6896 14.079 10.7361C14.116 10.7576 14.156 10.7736 14.1915 10.7971C14.29 10.8616 14.3795 10.9366 14.466 11.0161C14.4785 11.0276 14.493 11.0366 14.505 11.0486C14.896 11.4226 15.1425 11.9396 15.171 12.5151H23.561C24.6655 12.5151 25.561 11.6196 25.561 10.5151V5.8986C25.5615 4.7976 24.624 3.8976 23.478 3.8976ZM9.24845 3.8976C9.50345 3.1271 10.222 2.5656 11.077 2.5656H14.9235C15.7785 2.5656 16.497 3.1271 16.752 3.8976H9.24845Z" fill="#F0145A"/>
</svg>
